<?xml version="1.0" standalone="no"?><!DOCTYPE svg PUBLIC "-//W3C//DTD SVG 1.1//EN" "http://www.w3.org/Graphics/SVG/1.1/DTD/svg11.dtd"><svg t="1493034541885" class="icon" style="" viewBox="0 0 1140 1024" version="1.1" xmlns="http://www.w3.org/2000/svg" p-id="9512" xmlns:xlink="http://www.w3.org/1999/xlink" width="222.65625" height="200"><defs><style type="text/css"></style></defs><path d="M597.072058 33.466182c-5.075316-4.745775-11.785309-7.365353-18.824844-7.365353-7.037673 0-13.829585 2.619578-18.819258 7.365353L597.072058 33.466182zM559.342313 33.466182 52.209105 519.078633c-22.17984 21.276858-20.86912 56.874822 1.388916 78.071622 22.176116 21.27872 58.187404 21.440698 80.44544 0.161978L578.165295 172.42112l444.205615 424.889251c22.339956 21.27872 58.181818 21.116742 80.439855-0.161978 22.259898-21.1968 23.568756-56.792902 1.31072-78.071622L597.070196 33.466182 559.342313 33.466182" p-id="9513"></path><path d="M597.397876 410.318662c-5.073455-4.911476-11.865367-7.612975-18.901178-7.612975-7.037673 0-13.833309 2.701498-18.822982 7.612975L597.397876 410.318662zM559.671855 410.318662l-506.973091 485.446749c-22.258036 21.36064-20.949178 56.874822 1.308858 78.153542 22.26176 21.276858 58.105484 21.440698 80.36352 0.08192l444.123695-424.973033 444.200029 424.974895c22.341818 21.276858 58.185542 21.113018 80.44544-0.08192 22.259898-21.27872 23.650676-56.874822 1.308858-78.153542L597.397876 410.320524 559.671855 410.318662" p-id="9514"></path></svg>