<?xml version="1.0" standalone="no"?><!DOCTYPE svg PUBLIC "-//W3C//DTD SVG 1.1//EN" "http://www.w3.org/Graphics/SVG/1.1/DTD/svg11.dtd"><svg t="1493026052579" class="icon" style="" viewBox="0 0 1024 1024" version="1.1" xmlns="http://www.w3.org/2000/svg" p-id="9387" xmlns:xlink="http://www.w3.org/1999/xlink" width="200" height="200"><defs><style type="text/css"></style></defs><path d="M82.416 500.413c0 241.476 195.756 437.227 437.227 437.227s437.227-195.756 437.227-437.227c0-241.476-195.756-437.227-437.227-437.227-241.476 0-437.227 195.756-437.227 437.227z" fill="#E2C848" p-id="9388"></path><path d="M519.648 948.57c-244.118 0-442.693-198.574-442.693-442.693 0-90.725 27.326-177.804 78.701-251.773 8.745-12.39 25.504-15.667 37.888-6.919 12.39 8.745 15.667 25.504 6.919 37.888-45.179 64.857-68.865 141.37-68.865 220.802 0 213.884 174.161 388.046 388.046 388.046s388.046-174.161 388.046-388.046c0-83.075-25.871-162.137-74.689-228.816-8.745-12.019-6.193-29.148 5.827-38.258 12.019-8.745 29.148-6.193 38.258 5.827 55.746 76.153 85.26 166.513 85.26 260.881 0 244.484-198.574 443.058-442.693 443.058z" fill="" p-id="9389"></path><path d="M529.119 352.848h-4.372c-183.999-1.821-318.085-106.398-323.916-111.132s-9.836-11.659-10.206-19.308c-0.726-7.65 2.188-15.303 7.289-20.769 84.531-89.266 198.574-138.458 321.727-138.458 116.593 0 226.996 45.179 310.066 126.798 10.563 10.206 10.93 27.326 1.098 37.888-4.731 5.101-117.323 124.969-301.685 124.969zM260.951 216.575c44.815 28.053 143.921 80.161 264.524 81.614h3.639c118.050 0 203.675-57.932 240.841-88.902-69.955-59.029-157.766-91.455-250.315-91.455-96.921 0-187.642 34.979-258.693 98.741zM685.425 649.798h-126.798v-54.649h126.798c14.935 0 27.326-12.39 27.326-27.326s-12.39-27.326-27.326-27.326h-71.411l60.844-112.948c7.289-13.119 2.188-29.879-11.293-37.162-13.119-7.289-29.879-2.188-37.162 11.293l-74.325 138.816h-44.815l-72.871-135.173c-7.289-13.119-23.683-18.214-37.162-10.93-13.119 7.289-18.214 23.683-10.93 37.162l58.659 108.94h-67.404c-14.935 0-27.326 12.39-27.326 27.326s12.39 27.326 27.326 27.326h126.798v54.649h-126.798c-14.935 0-27.326 12.39-27.326 27.326s12.39 27.326 27.326 27.326h126.798v86.72c0 14.935 12.39 27.326 27.326 27.326s27.326-12.39 27.326-27.326v-86.72h126.428c14.935 0 27.326-12.39 27.326-27.326s-12.39-27.326-27.326-27.326z" fill="" p-id="9390"></path></svg>